<?xml version="1.0" standalone="no"?>
<!DOCTYPE svg PUBLIC "-//W3C//DTD SVG 20010904//EN"
 "http://www.w3.org/TR/2001/REC-SVG-20010904/DTD/svg10.dtd">
<svg version="1.0" xmlns="http://www.w3.org/2000/svg"
 width="512.000000pt" height="512.000000pt" viewBox="0 0 512.000000 512.000000"
 preserveAspectRatio="xMidYMid meet">

<g transform="translate(0.000000,512.000000) scale(0.100000,-0.100000)"
fill="#000000" stroke="none">
<path d="M2494 4826 c-42 -42 -44 -77 -8 -149 61 -120 77 -204 50 -278 -7 -19
-33 -65 -59 -101 -81 -114 -101 -167 -105 -289 -5 -123 9 -184 66 -293 57
-108 129 -137 191 -75 41 41 40 68 -10 181 -49 111 -59 184 -35 243 10 22 42
77 72 122 76 112 96 174 97 293 0 78 -5 108 -26 168 -68 193 -153 258 -233
178z"/>
<path d="M1663 4000 c-49 -29 -52 -71 -14 -158 17 -39 31 -79 31 -89 0 -10
-22 -52 -49 -93 -63 -98 -75 -136 -68 -224 7 -82 51 -181 98 -220 43 -36 92
-35 130 3 37 38 38 86 4 159 -34 74 -32 99 17 173 84 130 94 184 58 300 -45
148 -120 202 -207 149z"/>
<path d="M3331 3994 c-39 -33 -41 -80 -6 -156 35 -75 32 -99 -20 -179 -89
-133 -97 -220 -32 -353 43 -86 75 -116 124 -116 26 0 43 8 69 34 42 42 43 65
3 150 -38 82 -36 102 25 189 59 87 70 124 63 212 -4 53 -13 88 -36 132 -55
110 -125 142 -190 87z"/>
<path d="M2434 3159 c-108 -52 -171 -144 -181 -265 -3 -38 -1 -86 5 -106 l10
-37 -72 -11 c-478 -77 -934 -314 -1267 -657 -272 -281 -442 -561 -557 -914
-54 -166 -78 -289 -98 -499 -9 -96 -18 -181 -20 -187 -2 -9 -23 -13 -61 -13
-94 0 -156 -57 -139 -126 14 -53 46 -71 137 -79 46 -3 1144 -5 2439 -3 1900 2
2361 6 2386 16 42 17 63 76 44 122 -18 45 -52 63 -128 69 l-67 6 -12 145 c-20
235 -53 404 -118 589 -202 578 -583 1020 -1126 1304 -198 105 -464 193 -685
227 l-72 11 10 37 c16 57 3 167 -27 228 -32 65 -100 127 -162 148 -67 23 -187
20 -239 -5z m188 -206 c11 -10 27 -31 35 -47 18 -35 5 -74 -39 -111 -40 -34
-79 -32 -123 6 -29 26 -35 38 -35 71 0 32 7 47 35 75 31 31 40 35 72 30 19 -4
44 -14 55 -24z m250 -417 c520 -82 990 -352 1315 -756 274 -341 431 -749 459
-1193 l7 -117 -1931 0 c-1062 0 -1933 3 -1935 8 -7 14 12 230 28 323 53 295
211 613 418 845 311 348 731 557 1197 595 170 13 177 15 206 44 36 36 33 97
-7 137 l-30 31 -147 -6 c-572 -22 -1134 -321 -1479 -788 -242 -328 -362 -659
-398 -1106 l-7 -83 -51 0 -50 0 7 120 c16 281 95 570 227 830 208 410 546 737
974 941 186 88 443 163 650 188 108 13 428 6 547 -13z"/>
</g>
</svg>
